<svg xmlns="http://www.w3.org/2000/svg" viewBox="0 0 512 512" role="img" aria-labelledby="title desc">
  <title id="title">Logo SuguCash</title>
  <desc id="desc">Icône d'application de gestion commerciale SuguCash</desc>
  <rect width="512" height="512" rx="112" fill="#0F172A"/>
  <circle cx="384" cy="132" r="54" fill="#16A34A"/>
  <path d="M129 307c0-72 58-130 130-130h89v72h-89c-32 0-58 26-58 58s26 58 58 58h124v72H259c-72 0-130-58-130-130Z" fill="#2563EB"/>
  <path d="M129 249h169c24 0 43 19 43 43s-19 43-43 43H129v-86Z" fill="#FFFFFF"/>
  <path d="M231 230h54v135h-54V230Z" fill="#16A34A" opacity=".95"/>
  <path d="M248 205h20v185h-20V205Z" fill="#0F172A" opacity=".45"/>
</svg>
